<?xml version="1.0" standalone="no"?>
<!DOCTYPE svg PUBLIC "-//W3C//DTD SVG 20010904//EN"
 "http://www.w3.org/TR/2001/REC-SVG-20010904/DTD/svg10.dtd">
<svg version="1.0" xmlns="http://www.w3.org/2000/svg"
 width="432.000000pt" height="125.000000pt" viewBox="0 0 432.000000 125.000000"
 preserveAspectRatio="xMidYMid meet">

<g transform="translate(0.000000,125.000000) scale(0.100000,-0.100000)"
fill="#000000" stroke="none">
<path d="M595 1210 c-206 -30 -378 -154 -463 -331 -47 -99 -62 -162 -62 -267
0 -268 188 -509 447 -576 82 -22 223 -22 303 -1 194 50 358 205 421 396 34
106 34 262 0 368 -30 92 -104 205 -174 266 -125 109 -316 168 -472 145z m283
-260 c78 -98 142 -181 142 -184 0 -4 -31 -6 -70 -6 l-70 0 -102 129 c-57 72
-106 129 -109 128 -4 -1 -52 -59 -108 -129 l-101 -128 -71 0 c-40 0 -69 4 -67
9 2 6 66 89 143 185 l139 176 66 0 65 0 143 -180z m156 -235 c5 -13 -39 -15
-354 -15 -313 0 -360 2 -360 15 0 13 46 15 354 15 305 0 355 -2 360 -15z m0
-50 c-5 -13 -55 -15 -360 -15 -308 0 -354 2 -354 15 0 13 47 15 360 15 315 0
359 -2 354 -15z m6 -45 c0 -6 -127 -10 -360 -10 -233 0 -360 4 -360 10 0 6
127 10 360 10 233 0 360 -4 360 -10z m-163 -216 c76 -96 139 -179 141 -184 2
-6 -25 -10 -66 -10 l-70 0 -102 128 c-56 70 -106 127 -110 127 -4 0 -54 -57
-110 -127 l-102 -128 -69 0 c-38 0 -69 3 -69 8 0 9 266 343 284 357 7 6 40 8
74 7 l60 -4 139 -174z"/>
<path d="M3213 920 c-23 -14 -34 -29 -39 -56 -11 -58 9 -83 86 -108 57 -18 65
-24 65 -46 0 -37 -44 -55 -106 -43 -47 10 -49 9 -49 -12 0 -26 22 -35 93 -35
52 0 101 20 111 45 3 9 6 34 6 56 0 33 -5 42 -32 59 -17 10 -49 22 -70 25 -46
8 -64 34 -47 66 10 20 17 21 76 16 62 -6 64 -6 61 15 -5 39 -102 50 -155 18z"/>
<path d="M2470 776 l0 -156 25 0 c25 0 25 1 26 88 1 48 0 99 -1 115 -1 15 1
27 3 27 3 0 24 -52 47 -115 57 -152 64 -152 121 3 l44 117 3 -117 3 -118 24 0
25 0 0 156 0 155 -41 -3 -42 -3 -36 -102 c-20 -57 -38 -103 -41 -103 -3 0 -21
46 -41 103 l-36 102 -42 3 -41 3 0 -155z"/>
<path d="M2898 782 c-32 -81 -58 -151 -58 -155 0 -4 12 -7 26 -7 21 0 29 8 41
40 l16 40 61 0 61 0 17 -40 c13 -32 22 -40 43 -40 31 0 34 -14 -39 170 -50
127 -55 135 -82 138 -29 2 -30 0 -86 -146z m121 -19 c1 -9 -13 -13 -38 -13
l-40 0 13 33 c7 17 16 41 21 52 6 18 9 15 25 -20 10 -22 19 -46 19 -52z"/>
<path d="M3420 910 c0 -17 7 -20 50 -20 l50 0 0 -135 0 -135 25 0 24 0 3 133
3 132 48 3 c39 3 47 6 47 23 0 18 -8 19 -125 19 -118 0 -125 -1 -125 -20z"/>
<path d="M3720 775 l0 -155 100 0 100 0 0 25 c0 24 -2 25 -75 25 l-75 0 0 45
0 45 66 0 c62 0 65 1 62 23 -3 20 -9 22 -66 25 l-63 3 3 37 3 37 73 3 c64 3
72 5 72 22 0 19 -7 20 -100 20 l-100 0 0 -155z"/>
<path d="M3990 775 l0 -155 25 0 c24 0 25 3 25 60 0 56 2 60 23 60 17 0 35
-16 65 -60 36 -51 47 -60 73 -60 34 0 34 0 -19 74 l-36 49 28 20 c38 27 49 61
35 104 -15 45 -57 63 -149 63 l-70 0 0 -155z m133 104 c32 -9 37 -14 37 -39 0
-36 -23 -50 -79 -50 l-41 0 0 43 c0 62 9 67 83 46z"/>
<path d="M1462 373 c0 -43 3 -63 5 -45 5 41 21 41 56 0 16 -18 25 -26 21 -18
-4 8 -14 23 -22 33 -14 16 -14 19 6 33 12 8 22 21 22 29 0 23 -30 45 -61 45
l-29 0 2 -77z m72 44 c9 -15 7 -21 -8 -33 -36 -26 -56 -18 -56 22 0 32 2 35
26 32 15 -2 32 -11 38 -21z"/>
<path d="M1590 375 l0 -75 43 2 42 1 -37 4 c-34 4 -38 7 -38 33 0 25 4 29 33
33 l32 4 -32 1 c-29 2 -33 5 -33 31 0 27 4 30 38 34 l37 4 -42 1 -43 2 0 -75z"/>
<path d="M1730 432 c-31 -25 -32 -88 -1 -113 13 -11 37 -18 55 -18 30 1 30 2
-7 9 -48 9 -58 19 -59 59 -1 37 24 68 61 74 l26 4 -26 2 c-15 0 -37 -7 -49
-17z"/>
<path d="M1917 439 c35 -10 47 -35 41 -85 -2 -21 -11 -31 -31 -38 -56 -20 -95
40 -64 97 l17 32 -20 -24 c-26 -30 -26 -71 0 -99 25 -27 60 -28 91 -3 48 39
16 133 -45 130 -15 -1 -12 -3 11 -10z"/>
<path d="M2012 373 c0 -43 3 -63 5 -45 5 41 24 41 58 1 14 -17 28 -29 30 -27
3 3 -4 13 -15 23 -24 21 -26 41 -5 49 18 7 20 47 3 64 -7 7 -27 12 -45 12
l-33 0 2 -77z m75 51 c9 -24 -10 -49 -41 -52 -24 -3 -26 0 -26 32 0 33 2 36
30 36 19 0 33 -6 37 -16z"/>
<path d="M2140 375 l0 -75 35 0 c46 0 75 29 75 75 0 22 -8 43 -20 55 -12 12
-33 20 -55 20 l-35 0 0 -75z m82 48 c22 -20 23 -70 1 -95 -9 -10 -29 -18 -45
-18 -28 0 -28 0 -28 65 0 64 1 65 27 65 14 0 35 -7 45 -17z"/>
<path d="M2462 438 c-22 -22 -13 -48 22 -63 19 -8 38 -19 41 -25 11 -18 -15
-40 -49 -41 -18 -1 -23 -3 -13 -6 27 -7 64 5 71 22 9 25 -4 43 -40 55 -28 9
-34 17 -32 33 2 17 10 22 35 22 17 0 29 3 26 7 -7 12 -48 9 -61 -4z"/>
<path d="M2570 375 l0 -75 48 2 47 1 -42 4 c-40 4 -43 6 -43 33 0 25 4 29 33
33 l32 4 -32 1 c-29 2 -33 5 -33 31 0 27 4 30 38 34 l37 4 -42 1 -43 2 0 -75z"/>
<path d="M2715 425 c-50 -49 -20 -127 48 -124 l32 2 -30 4 c-40 6 -65 30 -65
63 0 37 20 60 60 70 33 7 33 8 7 9 -17 1 -37 -8 -52 -24z"/>
<path d="M2832 393 c-2 -68 12 -93 53 -93 41 0 55 25 53 93 l-2 62 -3 -60 c-5
-66 -15 -85 -48 -85 -33 0 -43 19 -48 85 l-3 60 -2 -62z"/>
<path d="M2982 373 c0 -43 3 -63 5 -45 5 41 21 41 56 0 16 -18 24 -24 18 -13
-19 36 -38 55 -55 55 -12 0 -16 9 -16 35 0 30 3 35 24 35 36 0 53 -26 36 -53
-12 -20 -12 -21 3 -8 37 30 9 71 -47 71 -26 0 -26 -1 -24 -77z"/>
<path d="M3110 375 l0 -75 43 2 42 1 -37 4 c-34 4 -38 7 -38 33 0 25 4 29 33
33 l32 4 -32 1 c-29 2 -33 5 -33 31 0 27 4 30 38 34 l37 4 -42 1 -43 2 0 -75z"/>
<path d="M3401 418 c2 -31 2 -31 6 -5 3 21 10 27 28 27 14 0 29 -8 35 -19 13
-26 -14 -54 -47 -48 -21 4 -23 1 -22 -32 2 -30 3 -32 6 -8 6 36 20 34 56 -5
l29 -33 -22 32 -21 32 21 21 c11 11 20 24 20 29 0 19 -32 41 -61 41 -26 0 -29
-3 -28 -32z"/>
<path d="M3520 375 l0 -75 48 2 47 1 -42 4 c-40 4 -43 6 -43 34 0 27 3 29 38
30 l37 2 -35 6 c-29 5 -36 11 -38 33 -3 25 0 27 40 31 l43 4 -47 1 -48 2 0
-75z"/>
<path d="M3652 443 c26 -4 27 -7 31 -76 l3 -72 2 72 c2 70 3 72 30 76 15 2 0
4 -33 4 -33 0 -48 -2 -33 -4z"/>
<path d="M3772 373 c0 -43 3 -63 5 -45 5 41 24 41 58 1 14 -17 28 -29 30 -27
3 3 -4 13 -15 23 -24 21 -26 41 -5 49 18 7 20 47 3 64 -7 7 -27 12 -45 12
l-33 0 2 -77z m62 61 c35 -14 11 -64 -31 -64 -20 0 -23 5 -23 35 0 36 15 44
54 29z"/>
<path d="M3903 375 c0 -44 2 -61 4 -37 2 23 2 59 0 80 -2 20 -4 1 -4 -43z"/>
<path d="M3950 375 l0 -75 48 2 47 1 -42 4 c-40 4 -43 6 -43 33 0 25 4 29 33
33 l32 4 -32 1 c-29 2 -33 5 -33 31 0 27 4 30 38 34 l37 4 -42 1 -43 2 0 -75z"/>
<path d="M4060 445 c0 -5 5 -17 10 -25 5 -8 10 -10 10 -5 0 6 -5 17 -10 25 -5
8 -10 11 -10 5z"/>
<path d="M4206 434 c-5 -13 -3 -14 6 -6 7 6 29 12 48 15 34 4 34 4 -6 5 -31 2
-44 -2 -48 -14z"/>
<path d="M4145 387 c-24 -71 -30 -74 -44 -26 -7 22 -14 39 -17 37 -6 -6 26
-98 34 -98 8 0 55 130 49 136 -2 2 -11 -20 -22 -49z"/>
<path d="M4204 378 c-3 -4 13 -8 35 -8 23 0 41 2 41 4 0 8 -71 12 -76 4z"/>
<path d="M2338 353 c6 -2 18 -2 25 0 6 3 1 5 -13 5 -14 0 -19 -2 -12 -5z"/>
<path d="M3278 353 c6 -2 18 -2 25 0 6 3 1 5 -13 5 -14 0 -19 -2 -12 -5z"/>
<path d="M4228 303 c12 -2 32 -2 45 0 12 2 2 4 -23 4 -25 0 -35 -2 -22 -4z"/>
</g>
</svg>
